<svg data-v-423bf9ae="" xmlns="http://www.w3.org/2000/svg" viewBox="0 0 378 90" class="iconLeft"><!----><!----><!----><g data-v-423bf9ae="" id="3ae089e4-78d9-45c1-915e-b75f3c47742a" fill="white" transform="matrix(4.633204701445071,0,0,4.633204701445071,105.32045917678664,-2.5135148309982185)"><path d="M6.71 12.92L6.71 12.92L6.71 12.92Q5.81 13.92 4.31 13.92L4.31 13.92L4.31 13.92Q2.81 13.92 1.91 12.93L1.91 12.93L1.91 12.93Q1.01 11.94 1.01 10.18L1.01 10.18L1.01 10.18Q1.01 8.43 1.91 7.43L1.91 7.43L1.91 7.43Q2.81 6.43 4.31 6.43L4.31 6.43L4.31 6.43Q5.81 6.43 6.71 7.41L6.71 7.41L6.71 7.41Q7.62 8.40 7.62 10.16L7.62 10.16L7.62 10.16Q7.62 11.91 6.71 12.92ZM4.31 13.03L4.31 13.03L4.31 13.03Q5.39 13.03 5.99 12.27L5.99 12.27L5.99 12.27Q6.59 11.51 6.59 10.16L6.59 10.16L6.59 10.16Q6.59 8.81 6.01 8.06L6.01 8.06L6.01 8.06Q5.42 7.31 4.31 7.31L4.31 7.31L4.31 7.31Q3.19 7.31 2.61 8.04L2.61 8.04L2.61 8.04Q2.03 8.78 2.03 10.18L2.03 10.18L2.03 10.18Q2.03 11.54 2.62 12.29L2.62 12.29L2.62 12.29Q3.21 13.03 4.31 13.03ZM12.87 13.92L12.87 13.92L12.87 13.92Q12.15 13.92 11.47 13.57L11.47 13.57L11.47 13.57Q10.79 13.23 10.32 12.67L10.32 12.67L11.00 12.07L11.00 12.07Q11.86 13.05 12.95 13.05L12.95 13.05L12.95 13.05Q13.59 13.05 14.01 12.78L14.01 12.78L14.01 12.78Q14.43 12.50 14.43 12.01L14.43 12.01L14.43 12.01Q14.43 11.70 14.29 11.46L14.29 11.46L14.29 11.46Q14.14 11.21 13.83 11.01L13.83 11.01L13.83 11.01Q13.51 10.81 13.27 10.70L13.27 10.70L13.27 10.70Q13.02 10.58 12.57 10.42L12.57 10.42L12.57 10.42Q12.04 10.21 11.71 10.04L11.71 10.04L11.71 10.04Q11.38 9.87 11.03 9.62L11.03 9.62L11.03 9.62Q10.68 9.37 10.51 9.02L10.51 9.02L10.51 9.02Q10.35 8.68 10.35 8.25L10.35 8.25L10.35 8.25Q10.35 7.43 11.02 6.93L11.02 6.93L11.02 6.93Q11.69 6.43 12.74 6.43L12.74 6.43L12.74 6.43Q14.21 6.43 15.15 7.52L15.15 7.52L14.50 8.06L14.50 8.06Q13.71 7.29 12.71 7.29L12.71 7.29L12.71 7.29Q12.05 7.29 11.66 7.55L11.66 7.55L11.66 7.55Q11.27 7.80 11.27 8.23L11.27 8.23L11.27 8.23Q11.27 8.44 11.38 8.62L11.38 8.62L11.38 8.62Q11.48 8.81 11.61 8.93L11.61 8.93L11.61 8.93Q11.73 9.04 12.01 9.19L12.01 9.19L12.01 9.19Q12.29 9.34 12.46 9.40L12.46 9.40L12.46 9.40Q12.63 9.46 12.99 9.60L12.99 9.60L12.99 9.60Q13.55 9.81 13.85 9.96L13.85 9.96L13.85 9.96Q14.15 10.11 14.57 10.39L14.57 10.39L14.57 10.39Q14.98 10.67 15.17 11.05L15.17 11.05L15.17 11.05Q15.36 11.44 15.36 11.96L15.36 11.96L15.36 11.96Q15.36 12.85 14.69 13.38L14.69 13.38L14.69 13.38Q14.01 13.92 12.87 13.92ZM21.49 13.92L21.49 13.92L21.49 13.92Q20.05 13.92 19.41 13.10L19.41 13.10L19.41 13.10Q18.77 12.29 18.77 10.47L18.77 10.47L18.77 6.59L19.78 6.59L19.78 10.86L19.78 10.86Q19.78 11.97 20.24 12.49L20.24 12.49L20.24 12.49Q20.71 13.01 21.49 13.01L21.49 13.01L21.49 13.01Q23.32 13.01 23.32 10.89L23.32 10.89L23.32 6.59L24.33 6.59L24.33 13.75L23.32 13.75L23.32 13.03L23.32 13.03Q22.95 13.52 22.52 13.72L22.52 13.72L22.52 13.72Q22.09 13.92 21.49 13.92ZM30.49 11.05L29.92 11.05L29.71 6.82L29.71 3.78L30.72 3.78L30.72 6.82L30.49 11.05ZM30.81 13.68L30.81 13.68L30.81 13.68Q30.55 13.94 30.18 13.94L30.18 13.94L30.18 13.94Q29.82 13.94 29.56 13.68L29.56 13.68L29.56 13.68Q29.30 13.41 29.30 13.06L29.30 13.06L29.30 13.06Q29.30 12.71 29.56 12.45L29.56 12.45L29.56 12.45Q29.82 12.18 30.18 12.18L30.18 12.18L30.18 12.18Q30.55 12.18 30.81 12.45L30.81 12.45L30.81 12.45Q31.07 12.71 31.07 13.06L31.07 13.06L31.07 13.06Q31.07 13.41 30.81 13.68ZM38.74 13.92L38.74 13.92L38.74 13.92Q38.02 13.92 37.34 13.57L37.34 13.57L37.34 13.57Q36.67 13.23 36.19 12.67L36.19 12.67L36.88 12.07L36.88 12.07Q37.73 13.05 38.82 13.05L38.82 13.05L38.82 13.05Q39.47 13.05 39.89 12.78L39.89 12.78L39.89 12.78Q40.31 12.50 40.31 12.01L40.31 12.01L40.31 12.01Q40.31 11.70 40.16 11.46L40.16 11.46L40.16 11.46Q40.01 11.21 39.70 11.01L39.70 11.01L39.70 11.01Q39.38 10.81 39.14 10.70L39.14 10.70L39.14 10.70Q38.89 10.58 38.44 10.42L38.44 10.42L38.44 10.42Q37.91 10.21 37.58 10.04L37.58 10.04L37.58 10.04Q37.25 9.87 36.90 9.62L36.90 9.62L36.90 9.62Q36.55 9.37 36.39 9.02L36.39 9.02L36.39 9.02Q36.22 8.68 36.22 8.25L36.22 8.25L36.22 8.25Q36.22 7.43 36.89 6.93L36.89 6.93L36.89 6.93Q37.56 6.43 38.61 6.43L38.61 6.43L38.61 6.43Q40.08 6.43 41.02 7.52L41.02 7.52L40.38 8.06L40.38 8.06Q39.58 7.29 38.58 7.29L38.58 7.29L38.58 7.29Q37.93 7.29 37.53 7.55L37.53 7.55L37.53 7.55Q37.14 7.80 37.14 8.23L37.14 8.23L37.14 8.23Q37.14 8.44 37.25 8.62L37.25 8.62L37.25 8.62Q37.35 8.81 37.48 8.93L37.48 8.93L37.48 8.93Q37.60 9.04 37.88 9.19L37.88 9.19L37.88 9.19Q38.16 9.34 38.33 9.40L38.33 9.40L38.33 9.40Q38.50 9.46 38.86 9.60L38.86 9.60L38.86 9.60Q39.42 9.81 39.73 9.96L39.73 9.96L39.73 9.96Q40.03 10.11 40.44 10.39L40.44 10.39L40.44 10.39Q40.85 10.67 41.04 11.05L41.04 11.05L41.04 11.05Q41.23 11.44 41.23 11.96L41.23 11.96L41.23 11.96Q41.23 12.85 40.56 13.38L40.56 13.38L40.56 13.38Q39.89 13.92 38.74 13.92ZM48.12 4.94L48.12 4.94L48.12 4.94Q47.94 5.12 47.66 5.12L47.66 5.12L47.66 5.12Q47.38 5.12 47.19 4.94L47.19 4.94L47.19 4.94Q47.01 4.76 47.01 4.48L47.01 4.48L47.01 4.48Q47.01 4.20 47.20 4.00L47.20 4.00L47.20 4.00Q47.39 3.81 47.66 3.81L47.66 3.81L47.66 3.81Q47.94 3.81 48.12 4.00L48.12 4.00L48.12 4.00Q48.30 4.20 48.30 4.48L48.30 4.48L48.30 4.48Q48.30 4.76 48.12 4.94ZM48.15 6.59L48.15 12.87L50.12 12.87L50.12 13.75L45.19 13.75L45.19 12.87L47.17 12.87L47.17 7.48L45.19 7.48L45.19 6.59L48.15 6.59ZM55.48 16.73L55.48 16.73L55.03 15.96L55.03 15.96Q56.64 15.88 57.25 15.37L57.25 15.37L57.25 15.37Q57.86 14.87 57.86 14.03L57.86 14.03L57.86 12.94L57.86 12.94Q57.20 13.92 55.80 13.92L55.80 13.92L55.80 13.92Q54.53 13.92 53.66 12.93L53.66 12.93L53.66 12.93Q52.78 11.94 52.78 10.16L52.78 10.16L52.78 10.16Q52.78 8.43 53.63 7.43L53.63 7.43L53.63 7.43Q54.49 6.43 55.86 6.43L55.86 6.43L55.86 6.43Q57.15 6.43 57.86 7.27L57.86 7.27L57.86 6.59L58.84 6.59L58.84 13.64L58.84 13.64Q58.84 16.59 55.48 16.73ZM56.03 13.03L56.03 13.03L56.03 13.03Q56.56 13.03 57.06 12.71L57.06 12.71L57.06 12.71Q57.57 12.39 57.86 11.84L57.86 11.84L57.86 8.40L57.86 8.40Q57.57 7.90 57.04 7.60L57.04 7.60L57.04 7.60Q56.52 7.31 56.03 7.31L56.03 7.31L56.03 7.31Q54.92 7.31 54.36 8.04L54.36 8.04L54.36 8.04Q53.80 8.78 53.80 10.16L53.80 10.16L53.80 10.16Q53.80 11.51 54.43 12.27L54.43 12.27L54.43 12.27Q55.05 13.03 56.03 13.03Z"></path></g><!----><g data-v-423bf9ae="" id="83996775-f18f-4d98-a915-3c6f59633883" transform="matrix(2.8125,0,0,2.8125,0,0)" stroke="none" fill="white"><path d="M16 1c8.271 0 15 6.729 15 15s-6.729 15-15 15S1 24.271 1 16 7.729 1 16 1m0-1C7.163 0 0 7.163 0 16s7.163 16 16 16 16-7.163 16-16S24.837 0 16 0z"></path><path d="M16 7.045L24.955 16 16 24.955 7.045 16 16 7.045m0-1.414L5.631 16 16 26.369 26.369 16 16 5.631z"></path><path d="M16 12.538L19.462 16 16 19.462 12.538 16 16 12.538m0-1.414L11.124 16 16 20.876 20.876 16 16 11.124z"></path></g><!----></svg>
